<svg xmlns="http://www.w3.org/2000/svg" width="1100" height="700" viewBox="0 0 1100 700">
  <rect width="1100" height="700" fill="#fff"/>
  <text x="550" y="45" text-anchor="middle" font-size="26" font-family="Microsoft JhengHei, Arial" font-weight="700">TO-BE 目標流程</text>
  <rect x="80" y="80" width="230" height="520" rx="12" fill="#dbeafe" stroke="#2563eb"/>
  <text x="195" y="115" text-anchor="middle" font-size="20" font-family="Microsoft JhengHei, Arial">宿舍學生</text>
  <rect x="435" y="80" width="230" height="520" rx="12" fill="#fef3c7" stroke="#d97706"/>
  <text x="550" y="115" text-anchor="middle" font-size="20" font-family="Microsoft JhengHei, Arial">系統</text>
  <rect x="790" y="80" width="230" height="520" rx="12" fill="#dcfce7" stroke="#15803d"/>
  <text x="905" y="115" text-anchor="middle" font-size="20" font-family="Microsoft JhengHei, Arial">宿舍管理員 / 維修人員</text>

  <ellipse cx="195" cy="180" rx="80" ry="38" fill="#ffffff" stroke="#1d4ed8"/><text x="195" y="187" text-anchor="middle" font-size="16">填寫報修資料</text>
  <rect x="480" y="170" width="140" height="68" rx="10" fill="#ffffff" stroke="#d97706"/><text x="550" y="208" text-anchor="middle" font-size="15">資料完整檢查</text>
  <rect x="480" y="285" width="140" height="68" rx="10" fill="#ffffff" stroke="#d97706"/><text x="550" y="323" text-anchor="middle" font-size="15">建立案件與狀態</text>
  <rect x="480" y="400" width="140" height="68" rx="10" fill="#ffffff" stroke="#d97706"/><text x="550" y="438" text-anchor="middle" font-size="15">派工與更新狀態</text>
  <rect x="845" y="400" width="120" height="68" rx="10" fill="#ffffff" stroke="#15803d"/><text x="905" y="438" text-anchor="middle" font-size="15">完成回報</text>
  <path d="M275 180 L480 180" stroke="#1f2937" stroke-width="2" fill="none"/>
  <path d="M550 238 L550 285" stroke="#1f2937" stroke-width="2" fill="none"/>
  <path d="M550 353 L550 400" stroke="#1f2937" stroke-width="2" fill="none"/>
  <path d="M620 434 L845 434" stroke="#1f2937" stroke-width="2" fill="none"/>
  <text x="325" y="165" font-size="14">提交</text>
  <text x="560" y="265" font-size="14">成功／錯誤</text>
  <text x="560" y="385" font-size="14">狀態轉換</text>
  <text x="722" y="420" font-size="14">交接</text>

  <text x="110" y="620" font-size="16" font-family="Microsoft JhengHei, Arial">改善重點：統一入口、集中清單、明確狀態、可追溯操作</text>
</svg>
